<svg xmlns="http://www.w3.org/2000/svg" viewBox="0 0 1600 500" preserveAspectRatio="none">
  <defs>
    <linearGradient id="streakA" x1="0%" y1="0%" x2="100%" y2="100%">
      <stop offset="0%" stop-color="oklch(0.52 0.15 155)" stop-opacity="0"></stop>
      <stop offset="45%" stop-color="oklch(0.52 0.15 155)" stop-opacity="0.6"></stop>
      <stop offset="70%" stop-color="oklch(0.66 0.17 155)" stop-opacity="0.8"></stop>
      <stop offset="100%" stop-color="oklch(0.52 0.15 155)" stop-opacity="0"></stop>
    </linearGradient>
    <linearGradient id="streakB" x1="10%" y1="0%" x2="90%" y2="100%">
      <stop offset="0%" stop-color="oklch(0.52 0.15 155)" stop-opacity="0"></stop>
      <stop offset="50%" stop-color="oklch(0.66 0.17 155)" stop-opacity="0.65"></stop>
      <stop offset="100%" stop-color="oklch(0.52 0.15 155)" stop-opacity="0"></stop>
    </linearGradient>
    <linearGradient id="streakMint" x1="0%" y1="0%" x2="100%" y2="0%">
      <stop offset="0%" stop-color="oklch(0.66 0.17 155)" stop-opacity="0"></stop>
      <stop offset="50%" stop-color="oklch(0.66 0.17 155)" stop-opacity="0.95"></stop>
      <stop offset="100%" stop-color="oklch(0.66 0.17 155)" stop-opacity="0"></stop>
    </linearGradient>
    <radialGradient id="glow" cx="30%" cy="20%" r="70%">
      <stop offset="0%" stop-color="oklch(0.66 0.17 155 / 45%)"></stop>
      <stop offset="100%" stop-color="oklch(0.66 0.17 155 / 0%)"></stop>
    </radialGradient>
    <filter id="soft1" x="-50%" y="-50%" width="200%" height="200%">
      <feGaussianBlur stdDeviation="42"></feGaussianBlur>
    </filter>
    <filter id="soft2" x="-50%" y="-50%" width="200%" height="200%">
      <feGaussianBlur stdDeviation="16"></feGaussianBlur>
    </filter>
    <filter id="soft3" x="-50%" y="-50%" width="200%" height="200%">
      <feGaussianBlur stdDeviation="8"></feGaussianBlur>
    </filter>
    <linearGradient id="edgeFadeV" x1="0%" y1="0%" x2="0%" y2="100%">
      <stop offset="0%" stop-color="#fff" stop-opacity="0"></stop>
      <stop offset="28%" stop-color="#fff" stop-opacity="1"></stop>
      <stop offset="72%" stop-color="#fff" stop-opacity="1"></stop>
      <stop offset="100%" stop-color="#fff" stop-opacity="0"></stop>
    </linearGradient>
    <linearGradient id="edgeFadeH" x1="0%" y1="0%" x2="100%" y2="0%">
      <stop offset="0%" stop-color="#fff" stop-opacity="0"></stop>
      <stop offset="26%" stop-color="#fff" stop-opacity="1"></stop>
      <stop offset="74%" stop-color="#fff" stop-opacity="1"></stop>
      <stop offset="100%" stop-color="#fff" stop-opacity="0"></stop>
    </linearGradient>
    <mask id="edgeFade">
      <rect x="0" y="0" width="1600" height="500" fill="url(#edgeFadeV)"></rect>
      <rect x="0" y="0" width="1600" height="500" fill="url(#edgeFadeH)" style="mix-blend-mode:multiply"></rect>
    </mask>
  </defs>

  <rect x="0" y="0" width="1600" height="500" fill="url(#glow)"></rect>

  <g mask="url(#edgeFade)">

  <g filter="url(#soft1)" opacity="0.9">
    <path d="M -150 440 C 60 500, 180 260, 300 380 C 400 470, 480 120, 600 260 C 700 370, 780 40, 900 190 C 1000 300, 1100 20, 1220 160 C 1330 280, 1420 -30, 1600 100 L 1750 -60" fill="none" stroke="url(#streakA)" stroke-width="70" stroke-linecap="round"></path>
    <path d="M -120 500 C 80 420, 200 560, 340 380 C 440 250, 520 480, 640 340 C 740 220, 850 440, 980 300 C 1090 180, 1200 400, 1340 260 C 1440 150, 1500 140, 1600 100" fill="none" stroke="url(#streakB)" stroke-width="55" stroke-linecap="round"></path>
  </g>

  <g filter="url(#soft2)" opacity="0.95">
    <path d="M -80 460 C 100 380, 220 480, 320 320 C 420 160, 500 400, 620 260 C 730 130, 820 340, 940 200 C 1050 70, 1150 300, 1280 170 C 1390 60, 1450 40, 1500 20" fill="none" stroke="url(#streakA)" stroke-width="26" stroke-linecap="round"></path>
    <path d="M -60 500 C 120 440, 260 520, 380 380 C 480 260, 570 440, 690 340 C 800 250, 900 400, 1020 300 C 1130 210, 1250 340, 1380 220 C 1480 130, 1550 100, 1600 90" fill="none" stroke="url(#streakMint)" stroke-width="12" stroke-linecap="round"></path>
    <path d="M 40 500 C 200 420, 320 500, 440 360 C 540 240, 630 420, 750 300 C 860 190, 950 360, 1070 240 C 1180 130, 1290 320, 1400 200 C 1500 100, 1580 60, 1650 40" fill="none" stroke="url(#streakB)" stroke-width="20" stroke-linecap="round"></path>
  </g>

  <g filter="url(#soft3)" opacity="0.9">
    <path d="M 0 480 C 160 400, 280 460, 380 340 C 470 230, 550 400, 660 280 C 760 170, 850 340, 960 220 C 1070 100, 1170 300, 1280 180 C 1380 70, 1480 90, 1580 60" fill="none" stroke="url(#streakMint)" stroke-width="4" stroke-linecap="round"></path>
    <path d="M 80 500 C 240 420, 340 480, 440 360 C 530 250, 610 420, 720 300 C 820 190, 910 360, 1020 240 C 1130 130, 1230 310, 1340 200 C 1440 100, 1540 120, 1620 80" fill="none" stroke="url(#streakMint)" stroke-width="2.5" stroke-linecap="round"></path>
  </g>
</g></svg>
